# xmcd
#
# Track frame offsets: 
#        150
#        2580
#        38480
#        56920
#        87027
#        108897
#        135415
#        162757
#        183605
#        197870
#        220442
#        252872
#
# Disc length: 3939 seconds
#
# Revision: 0
# Processed by: cddbd v1.5.1PL0 Copyright (c) Steve Scherf et al.
# Submitted via: ExactAudioCopy v0.95b3
#
DISCID=9b0f610c
DTITLE=Ray Bryant - Solo Live in Tokyo Plays Blues and Boogie
DYEAR=1996
DGENRE=Blues
TTITLE0=Introduction
TTITLE1=C.C. Rider
TTITLE2=Take the A train
TTITLE3=Gee Blues Willow weep for mes
TTITLE4=Moanin'
TTITLE5=Georgia on my mind
TTITLE6=Black and Blue
TTITLE7=In the Backroom
TTITLE8=Jungltown Jubilee
TTITLE9=Cow-Cow Boogie
TTITLE10=St Louis Blues
TTITLE11=Little Susie
EXTD=
EXTT0=
EXTT1=
EXTT2=
EXTT3=
EXTT4=
EXTT5=
EXTT6=
EXTT7=
EXTT8=
EXTT9=
EXTT10=
EXTT11=
PLAYORDER=
